<svg xmlns:mydata="http://www.w3.org/2000/svg" mydata:contrastcolor="D0006F" mydata:template="Contrast" mydata:presentation="2.5" mydata:layouttype="undefined" mydata:specialfontid="undefined" mydata:id1="758" mydata:id2="1054" mydata:companyname="Patosha" mydata:companytagline="" version="1.1" xmlns="http://www.w3.org/2000/svg" xmlns:xlink="http://www.w3.org/1999/xlink" viewBox="0 0 550 470"><g fill="#6ad1e3" fill-rule="nonzero" stroke="none" stroke-width="1" stroke-linecap="butt" stroke-linejoin="miter" stroke-miterlimit="10" stroke-dasharray="" stroke-dashoffset="0" font-family="none" font-weight="none" font-size="none" text-anchor="none" style="mix-blend-mode: normal"><g data-paper-data="{&quot;isGlobalGroup&quot;:true,&quot;bounds&quot;:{&quot;x&quot;:65,&quot;y&quot;:196.50812064965197,&quot;width&quot;:420,&quot;height&quot;:76.98375870069606}}"><g data-paper-data="{&quot;isPrimaryText&quot;:true}"><path d="M65,199.04176c0,5.45708 0.38979,12.47332 0.38979,13.2529c0,1.26682 4.96984,2.43619 4.96984,3.50812c0,1.36427 -4.96984,2.72854 -4.96984,4.09281v2.33875c0,11.88863 -0.09745,18.02784 -0.1949,30.30626c0,0.38979 2.53364,8.18561 2.53364,8.57541c0,0.77958 -2.53364,0.68213 -2.53364,1.26682v8.08817c2.2413,0.68213 5.06729,0.87703 7.99072,0.77958c2.14385,0.09745 9.25754,0.1949 12.47332,0.1949v-21.24362c10.91415,0 15.59165,-0.1949 21.53596,-4.67749c0.38979,-0.29234 -0.38979,-4.58005 0,-4.87239c0.38979,-0.38979 5.35963,-0.58469 5.65197,-1.07193c2.53364,-4.19026 3.89791,-8.57541 3.89791,-17.44316c0,-19.09977 -18.22274,-23.48492 -25.62877,-23.48492h-9.84223c-6.33411,-0.1949 -13.4478,0 -16.27378,0.38979zM86.73086,214.24362h3.60557c5.06729,0 9.16009,3.60557 9.16009,9.54988c0,6.91879 -5.06729,10.91415 -8.18561,10.91415h-4.58005z" data-paper-data="{&quot;glyphName&quot;:&quot;P&quot;,&quot;glyphIndex&quot;:0,&quot;firstGlyphOfWord&quot;:true,&quot;word&quot;:1}"></path><path d="M119.66821,270.08121c0,0.29234 5.06729,0.48724 10.23202,0.48724c5.06729,0 10.13457,-0.1949 10.13457,-0.48724c0,-0.09745 0.58469,-2.82599 1.65661,-7.21114h17.34571c0.1949,0.77958 -1.65661,3.70302 -1.46172,4.38515c0.48724,2.2413 0.77958,2.82599 0.77958,2.82599c0,0.29234 5.06729,0.48724 10.23202,0.48724c5.06729,0 10.13457,-0.1949 10.13457,-0.48724c0,-1.85151 -7.69838,-33.81439 -12.08353,-52.52436c-0.1949,-0.77958 -3.80046,-2.0464 -3.99536,-2.72854c-0.29234,-1.07193 6.43155,-3.60557 6.43155,-4.58005c0.09745,-3.60557 -0.1949,-11.79118 -0.38979,-11.79118h-30.11137c-0.1949,0 -9.93968,31.57309 -15.4942,52.81671c-0.58469,2.2413 6.43155,1.94896 5.94432,3.89791c-0.29234,1.16937 -6.91879,2.63109 -7.21114,3.70302c-1.26682,5.55452 -2.14385,9.64733 -2.14385,11.2065zM149.1949,225.35267c1.36427,5.65197 2.63109,15.6891 3.89791,21.04872h-7.69838c1.26682,-5.35963 2.53364,-15.39675 3.80046,-21.04872z" data-paper-data="{&quot;glyphName&quot;:&quot;A&quot;,&quot;glyphIndex&quot;:1,&quot;word&quot;:1}"></path><path d="M182.0348,215.70534c1.36427,0.68213 13.35035,0.48724 21.34107,0.1949c-1.07193,2.2413 -5.16473,5.55452 -5.16473,7.50348c0.38979,18.61253 1.07193,43.55916 1.16937,47.16473c0.38979,0.87703 5.16473,1.36427 9.93968,1.36427c4.77494,0 9.54988,-0.48724 9.93968,-1.36427c0.48724,-2.82599 1.07193,-10.91415 1.36427,-18.41763c0.09745,-1.55916 -5.65197,-1.65661 -5.55452,-3.31323c0,-1.16937 5.74942,-1.94896 5.74942,-3.11833c0.29234,-10.32947 0.38979,-21.82831 0.29234,-30.69606c8.08817,0.1949 16.17633,0.1949 17.24826,-0.29234c1.85151,-0.87703 1.55916,-13.64269 0.77958,-14.32483c-0.87703,-0.77958 -12.57077,-0.97448 -19.58701,-0.87703c-1.07193,0 -3.70302,2.82599 -4.77494,2.82599c-0.87703,0 -3.41067,-2.82599 -4.77494,-2.82599c-8.57541,0 -27.96752,0.1949 -28.7471,0.87703c-0.77958,0.68213 -1.07193,14.42227 0.77958,15.2993z" data-paper-data="{&quot;glyphName&quot;:&quot;T&quot;,&quot;glyphIndex&quot;:2,&quot;word&quot;:1}"></path><path d="M271.97912,273.49188c8.47796,0 15.10441,-1.55916 19.68445,-6.43155c1.26682,-1.26682 -3.80046,-5.94432 -2.92343,-7.69838c0.58469,-1.07193 6.62645,3.31323 7.11369,2.14385c2.14385,-5.65197 3.70302,-15.4942 3.70302,-25.72622c0,-28.942 -7.01624,-39.27146 -27.57773,-39.27146c-7.79582,0 -15.78654,1.65661 -21.34107,8.28306c-1.16937,1.36427 3.60557,7.50348 2.72854,9.25754c-0.48724,0.97448 -4.87239,-1.16937 -6.7239,-1.16937c-0.38979,0 -0.58469,0.09745 -0.68213,0.29234c-1.75406,5.06729 -2.82599,11.49884 -2.82599,19.7819c0,22.51044 4.38515,40.53828 28.84455,40.53828zM263.7935,235.77958c0,-14.90951 3.11833,-20.75638 8.18561,-20.75638c5.55452,0 7.21114,6.82135 7.21114,20.36659c0,13.54524 -2.92343,19.58701 -7.21114,19.58701c-6.23666,0 -8.18561,-7.01624 -8.18561,-19.19722z" data-paper-data="{&quot;glyphName&quot;:&quot;O&quot;,&quot;glyphIndex&quot;:3,&quot;word&quot;:1}"></path><path d="M304.03944,254.19722c2.92343,13.2529 18.22274,19.29466 30.69606,19.29466c6.04176,0 10.62181,-1.55916 14.03248,-4.09281c1.75406,-1.36427 -2.63109,-4.67749 -1.55916,-6.43155c0.1949,-0.29234 1.26682,-0.38979 2.53364,-0.38979c1.94896,0 4.4826,0.1949 4.67749,-0.38979c1.26682,-2.72854 1.85151,-5.84687 1.85151,-8.9652c0,-26.79814 -30.01392,-23.67981 -30.01392,-32.93735c0,-3.11833 3.11833,-4.58005 5.84687,-4.58005c5.35963,0 7.69838,3.70302 8.47796,8.67285c0.29234,1.36427 2.82599,1.65661 5.65197,1.36427c0.48724,0 -0.68213,-2.33875 -0.1949,-2.43619c0.68213,-0.09745 3.70302,1.07193 4.19026,1.55916c-0.68213,0.29234 -0.87703,0.38979 0,0.1949c0.09745,0 0.09745,-0.09745 0,-0.1949c1.36427,-0.58469 4.67749,-1.85151 4.67749,-2.33875c0,-13.35035 -10.32947,-26.01856 -24.65429,-26.01856c-6.62645,0 -11.98608,1.85151 -16.76102,5.84687c-0.68213,0.48724 0.48724,5.55452 0,6.13921c-0.87703,0.97448 -3.50812,-2.43619 -4.09281,-1.36427c-1.75406,2.92343 -2.82599,6.23666 -2.82599,10.23202c0,25.43387 32.35267,23.97216 32.35267,33.42459c0,3.31323 -3.11833,4.58005 -7.50348,4.58005c-7.69838,0 -13.15545,-7.69838 -14.81206,-10.81671c-0.29234,-0.48724 -0.77958,-0.68213 -1.36427,-0.68213c-1.75406,0 -4.38515,1.55916 -6.62645,3.50812c-0.48724,0.38979 1.16937,9.16009 0.68213,9.64733c-0.58469,0.48724 -3.11833,-7.30858 -3.60557,-6.7239c-1.16937,1.55916 -1.94896,2.92343 -1.65661,3.89791z" data-paper-data="{&quot;glyphName&quot;:&quot;S&quot;,&quot;glyphIndex&quot;:4,&quot;word&quot;:1}"></path><path d="M363.19026,215.51044c0,1.36427 5.55452,2.92343 5.55452,4.4826c0.09745,2.14385 -5.35963,4.19026 -5.35963,6.43155c0.38979,18.61253 1.16937,40.53828 1.26682,44.14385c0.38979,0.87703 4.96984,1.36427 9.45244,1.36427c4.58005,0 9.06265,-0.48724 9.45244,-1.36427c0.48724,-2.82599 0.97448,-9.06265 1.26682,-16.56613c0.09745,-1.55916 -4.09281,-3.50812 -3.99536,-5.16473c0,-0.1949 0.09745,-0.38979 0.38979,-0.58469l16.46868,-1.46172c0.09745,10.23202 0.29234,19.29466 0.68213,23.77726c0.38979,0.87703 5.16473,1.36427 10.03712,1.36427c4.77494,0 9.54988,-0.48724 9.93968,-1.36427c0.29234,-9.54988 0.87703,-8.7703 1.26682,-19.39211c0.09745,-1.75406 -5.16473,-3.60557 -5.06729,-5.35963c0,-1.36427 5.35963,-2.72854 5.35963,-4.09281c0.29234,-10.42691 0.1949,-31.76798 -0.29234,-40.83063c-0.09745,-0.77958 -6.43155,-1.36427 -12.27842,-1.36427c-4.67749,0 -8.9652,0.38979 -9.06265,1.36427c-0.38979,4.4826 -0.68213,16.66357 -0.68213,29.81903h-12.18097c0.09745,-13.93503 -0.09745,-26.7007 -0.68213,-29.81903c-0.1949,-0.97448 -4.4826,-1.36427 -9.16009,-1.36427c-5.84687,0 -12.18097,0.58469 -12.18097,1.36427c-0.29234,2.0464 -0.29234,7.50348 -0.1949,14.61717z" data-paper-data="{&quot;glyphName&quot;:&quot;H&quot;,&quot;glyphIndex&quot;:5,&quot;word&quot;:1}"></path><path d="M425.94664,270.08121c0,0.29234 5.06729,0.48724 10.23202,0.48724c5.06729,0 10.13457,-0.1949 10.13457,-0.48724c0,-0.09745 0.58469,-2.82599 1.65661,-7.21114h17.34571c0.1949,0.77958 -1.65661,3.70302 -1.46172,4.38515c0.48724,2.2413 0.77958,2.82599 0.77958,2.82599c0,0.29234 5.06729,0.48724 10.23202,0.48724c5.06729,0 10.13457,-0.1949 10.13457,-0.48724c0,-1.85151 -7.69838,-33.81439 -12.08353,-52.52436c-0.1949,-0.77958 -3.80046,-2.0464 -3.99536,-2.72854c-0.29234,-1.07193 6.43155,-3.60557 6.43155,-4.58005c0.09745,-3.60557 -0.1949,-11.79118 -0.38979,-11.79118h-30.11137c-0.1949,0 -9.93968,31.57309 -15.4942,52.81671c-0.58469,2.2413 6.43155,1.94896 5.94432,3.89791c-0.29234,1.16937 -6.91879,2.63109 -7.21114,3.70302c-1.26682,5.55452 -2.14385,9.64733 -2.14385,11.2065zM455.47332,225.35267c1.36427,5.65197 2.63109,15.6891 3.89791,21.04872h-7.69838c1.26682,-5.35963 2.53364,-15.39675 3.80046,-21.04872z" data-paper-data="{&quot;glyphName&quot;:&quot;A&quot;,&quot;glyphIndex&quot;:6,&quot;lastGlyphOfWord&quot;:true,&quot;word&quot;:1}"></path></g></g></g><g class="watermark-group" style="opacity:0.040000010281801224"><path class="watermark-path" d="M129.52,370.3a11.88,11.88,0,0,1,2.58,5.58,12,12,0,0,1,.11,3,11.81,11.81,0,0,1-.64,2.93,12.34,12.34,0,0,1-1.41,2.72,11.65,11.65,0,0,1-2.13,2.32,12,12,0,0,1-2.64,1.69,13,13,0,0,1-2.91.9,12.47,12.47,0,0,1-3,.12,12.17,12.17,0,0,1-2.93-.64,11.8,11.8,0,0,1-2.72-1.38,12.19,12.19,0,0,1-4-4.79,11.85,11.85,0,0,1-.89-2.92,12.14,12.14,0,0,1-.13-3,11.54,11.54,0,0,1,.64-2.92,11.67,11.67,0,0,1,3.5-5,11.44,11.44,0,0,1,2.67-1.69,11.64,11.64,0,0,1,2.92-.91,10.71,10.71,0,0,1,3-.12,11.68,11.68,0,0,1,5.66,2,11.7,11.7,0,0,1,2.34,2.12m-1.4,8.76a13,13,0,0,1-1.22,2.32,9.68,9.68,0,0,1-1.81,2,7.44,7.44,0,0,1-2.38,1.37,6.17,6.17,0,0,1-5.11-.46,8.73,8.73,0,0,1-3.85-4.58,6.69,6.69,0,0,1-.34-2.66,6.09,6.09,0,0,1,.77-2.47,7.15,7.15,0,0,1,1.75-2.11,9.58,9.58,0,0,1,1.09-.81,8.23,8.23,0,0,1,1.12-.63,8.14,8.14,0,0,1,1.19-.46,12.71,12.71,0,0,1,1.32-.37l2,2.38a12.83,12.83,0,0,0-1.56.17,7.86,7.86,0,0,0-1.23.32,4.5,4.5,0,0,0-1,.49,6.41,6.41,0,0,0-.93.67,4.49,4.49,0,0,0-1.15,1.39,3.87,3.87,0,0,0-.45,1.58,4.12,4.12,0,0,0,.26,1.63,6.11,6.11,0,0,0,2.36,2.82,4.43,4.43,0,0,0,1.57.53,3.91,3.91,0,0,0,1.62-.17,4.71,4.71,0,0,0,1.57-.89,10.5,10.5,0,0,0,.83-.79,5.71,5.71,0,0,0,.65-.93,10.13,10.13,0,0,0,.54-1.14,12.24,12.24,0,0,0,.44-1.49l2,2.33m-14.46,4.55a8.86,8.86,0,0,0,2.78,2.22,9,9,0,0,0,3.29.94,9.15,9.15,0,0,0,3.39-.37,8.68,8.68,0,0,0,3.11-1.69,8.8,8.8,0,0,0,2.22-2.78,9.15,9.15,0,0,0,1-3.29,8.95,8.95,0,0,0-4.83-8.76,9,9,0,0,0-6.73-.57,9,9,0,0,0-5.33,4.47,8.94,8.94,0,0,0-.57,6.71,8.76,8.76,0,0,0,1.7,3.12"></path><path class="watermark-path" d="M147,349c-.48.12-1.09.31-1.82.57a24.37,24.37,0,0,0-2.4,1A28.35,28.35,0,0,0,140,352a20.72,20.72,0,0,0-2.71,1.94c-.7.59-1.28,1.11-1.74,1.57a15.07,15.07,0,0,0-1.1,1.22,4.09,4.09,0,0,0-.59.92,2.32,2.32,0,0,0-.22.64,1.16,1.16,0,0,0,0,.47,1.83,1.83,0,0,0,.18.29,1.15,1.15,0,0,0,1,.37,5.54,5.54,0,0,0,1.51-.38q.87-.35,1.95-.9l2.26-1.18q1.2-.65,2.49-1.29c.87-.44,1.73-.83,2.59-1.17a18.94,18.94,0,0,1,2.6-.81,9.27,9.27,0,0,1,2.46-.29,6.25,6.25,0,0,1,2.24.49,5.12,5.12,0,0,1,1.89,1.47,6.35,6.35,0,0,1,1.41,2.61,6,6,0,0,1,.09,2.6,8.3,8.3,0,0,1-.9,2.52,17.79,17.79,0,0,1-1.62,2.37,23.92,23.92,0,0,1-2,2.15c-.72.67-1.41,1.29-2.09,1.87a33.79,33.79,0,0,1-5.33,3.7,32.29,32.29,0,0,1-4.91,2.28l-3.61-4.3a21.38,21.38,0,0,0,5.39-1.87,27.2,27.2,0,0,0,5.4-3.56,21.59,21.59,0,0,0,2.38-2.27,8.67,8.67,0,0,0,1.18-1.7,2.32,2.32,0,0,0,.27-1.19,1.34,1.34,0,0,0-.28-.74,1.21,1.21,0,0,0-1-.42,4.32,4.32,0,0,0-1.55.34,15.77,15.77,0,0,0-2,.88c-.72.37-1.48.77-2.27,1.21l-2.45,1.3c-.85.45-1.7.85-2.56,1.21a22.37,22.37,0,0,1-2.54.86,10,10,0,0,1-2.43.32,5.76,5.76,0,0,1-2.2-.45,5,5,0,0,1-1.89-1.45,6.12,6.12,0,0,1-1.31-2.41,6,6,0,0,1-.1-2.41,8.28,8.28,0,0,1,.81-2.38,14.06,14.06,0,0,1,1.49-2.24,22.37,22.37,0,0,1,1.85-2.05q1-1,2-1.77c.7-.59,1.44-1.15,2.23-1.7s1.62-1.06,2.44-1.53,1.63-.91,2.43-1.3,1.58-.75,2.3-1L147,349"></path><path class="watermark-path" d="M186.76,337.57l-10.6-12.63,3.92,18.24-4.66,3.91-17.27-7,10.6,12.63-4.86,4.07-15.09-18,6.59-5.54,18.69,7.52-4.15-19.71,6.57-5.52,15.09,18-4.83,4.05"></path><path class="watermark-path" d="M208.84,313.24l-10,8.42,1.16,4.82L194.56,331l-5.68-25.89,5.42-4.55,24.51,10.09-5.42,4.55-4.55-2m-11.23,3.45,6.57-5.52-8.83-3.87,2.26,9.39"></path><path class="watermark-path" d="M227.49,281.38c-.48.12-1.09.31-1.82.57a24.37,24.37,0,0,0-2.4,1,26.11,26.11,0,0,0-2.7,1.47,20.72,20.72,0,0,0-2.71,1.94c-.7.59-1.28,1.11-1.74,1.57a13.39,13.39,0,0,0-1.1,1.22,4.29,4.29,0,0,0-.59.91,2.48,2.48,0,0,0-.22.65,1.16,1.16,0,0,0,0,.47,1.83,1.83,0,0,0,.18.29,1.15,1.15,0,0,0,1,.37,5.54,5.54,0,0,0,1.51-.38q.87-.34,2-.9l2.26-1.18q1.2-.64,2.49-1.29c.87-.44,1.73-.83,2.59-1.17a18.94,18.94,0,0,1,2.6-.81,9.27,9.27,0,0,1,2.46-.29,6.08,6.08,0,0,1,2.24.49,5.09,5.09,0,0,1,1.89,1.46,6.47,6.47,0,0,1,1.41,2.61,6.07,6.07,0,0,1,.09,2.61,8.3,8.3,0,0,1-.9,2.52,16.32,16.32,0,0,1-1.63,2.36,21.41,21.41,0,0,1-2,2.16c-.72.67-1.41,1.29-2.1,1.86a33.36,33.36,0,0,1-5.32,3.71,31.92,31.92,0,0,1-4.92,2.28l-3.6-4.3a21.38,21.38,0,0,0,5.39-1.87,27.2,27.2,0,0,0,5.4-3.56,21.59,21.59,0,0,0,2.38-2.27,8.67,8.67,0,0,0,1.18-1.7A2.32,2.32,0,0,0,231,293a1.34,1.34,0,0,0-.28-.74,1.21,1.21,0,0,0-1-.42,4.32,4.32,0,0,0-1.55.34,16.54,16.54,0,0,0-2,.88c-.71.37-1.47.77-2.26,1.21l-2.46,1.3c-.84.44-1.7.85-2.55,1.21a24.53,24.53,0,0,1-2.54.86A10,10,0,0,1,214,298a5.76,5.76,0,0,1-2.2-.45,5,5,0,0,1-1.89-1.45,6.12,6.12,0,0,1-1.31-2.41,5.78,5.78,0,0,1-.1-2.41,8,8,0,0,1,.81-2.38,14.61,14.61,0,0,1,1.49-2.25,22.26,22.26,0,0,1,1.85-2q1-1,2-1.77c.7-.59,1.44-1.15,2.23-1.7s1.62-1.06,2.44-1.53,1.63-.91,2.43-1.31,1.58-.74,2.3-1l3.5,4.16"></path><path class="watermark-path" d="M261.64,274.74l-6.29-7.5L243,277.61l6.3,7.5-4.86,4.07-15.09-18,4.85-4.08,5.49,6.55L252,263.3l-5.49-6.55,4.86-4.07,15.09,18-4.86,4.08"></path><path class="watermark-path" d="M272.18,265.9l-15.09-18,4.86-4.08,15.09,18-4.86,4.08"></path><path class="watermark-path" d="M299.65,242.85l-22.51-2.18L287.51,253l-4.85,4.08-15.1-18,5.28-4.43,22.56,2.22L285,224.5l4.83-4.06,15.09,18-5.26,4.42"></path><path class="watermark-path" d="M306.68,205.52a31.88,31.88,0,0,1,5.29-3.66,34.48,34.48,0,0,1,5.14-2.35l3.69,4.39a20.77,20.77,0,0,0-2.37.61,20.47,20.47,0,0,0-2.61,1,25.12,25.12,0,0,0-2.76,1.49,23.9,23.9,0,0,0-2.8,2,20.42,20.42,0,0,0-2.8,2.77,12.77,12.77,0,0,0-1.64,2.52,7,7,0,0,0-.68,2.24,6,6,0,0,0,.66,3.64,8.16,8.16,0,0,0,.94,1.38,9.12,9.12,0,0,0,1.08,1.07,6.39,6.39,0,0,0,1.47.91,6.73,6.73,0,0,0,1.88.48,6.54,6.54,0,0,0,2.28-.18,11.67,11.67,0,0,0,2.74-1.07,19.38,19.38,0,0,0,3.18-2.22c.57-.48,1.06-.92,1.46-1.31a14.57,14.57,0,0,0,1-1.13,11.46,11.46,0,0,0,.81-1.05l.74-1.09-1.82-2.17-5.45,4.57-3.31-3.94,10.31-8.65,7.71,9.19a29,29,0,0,1-1.67,2.43q-1,1.26-2.1,2.52c-.74.84-1.5,1.65-2.3,2.44s-1.58,1.5-2.33,2.14a31,31,0,0,1-3.59,2.61,22.55,22.55,0,0,1-3.64,1.83,15.64,15.64,0,0,1-3.63.89,10.72,10.72,0,0,1-3.49-.15,10.45,10.45,0,0,1-3.28-1.33,12.54,12.54,0,0,1-3-2.67,12,12,0,0,1-2.08-3.44,10.45,10.45,0,0,1-.71-3.5,11.14,11.14,0,0,1,.51-3.51,15.72,15.72,0,0,1,1.56-3.43,21.62,21.62,0,0,1,2.42-3.28,30.3,30.3,0,0,1,3.15-3"></path><path class="watermark-path" d="M336.91,211.59l-15.1-18,4.86-4.08,11.79,14,13.13-11,3.31,3.94-18,15.1"></path><path class="watermark-path" d="M374.54,164.71a12.28,12.28,0,0,1,2.59,4.81,10.44,10.44,0,0,1,0,5,14.62,14.62,0,0,1-2.33,5,25.55,25.55,0,0,1-4.56,4.85,26.07,26.07,0,0,1-5.6,3.67,14.79,14.79,0,0,1-5.38,1.43,10.43,10.43,0,0,1-4.94-.89,13.24,13.24,0,0,1-6.87-8.18,10.48,10.48,0,0,1,0-5,14.51,14.51,0,0,1,2.36-5,25.23,25.23,0,0,1,4.57-4.89,25,25,0,0,1,5.59-3.64,14.45,14.45,0,0,1,5.35-1.43,10.31,10.31,0,0,1,4.93.92,12.22,12.22,0,0,1,4.28,3.38m-4.91,4.11a8.36,8.36,0,0,0-2-1.72,5.5,5.5,0,0,0-2.65-.85,7.72,7.72,0,0,0-3.32.57,14.49,14.49,0,0,0-4,2.52,16.72,16.72,0,0,0-2.38,2.4,10.15,10.15,0,0,0-1.39,2.24,6.71,6.71,0,0,0-.56,2.1,5.69,5.69,0,0,0,.1,1.9,6.21,6.21,0,0,0,.61,1.69,9.85,9.85,0,0,0,1,1.44,10.48,10.48,0,0,0,1.26,1.23,6.67,6.67,0,0,0,1.57.92,6.1,6.1,0,0,0,1.85.41,6.8,6.8,0,0,0,2.15-.2,11.06,11.06,0,0,0,2.45-1,17.67,17.67,0,0,0,2.77-1.94,14.39,14.39,0,0,0,3.18-3.52,7.74,7.74,0,0,0,1.14-3.17,5.54,5.54,0,0,0-.37-2.74,8.52,8.52,0,0,0-1.36-2.3"></path><path class="watermark-path" d="M382.66,141.76A32.3,32.3,0,0,1,388,138.1a34.12,34.12,0,0,1,5.15-2.35l3.69,4.4a19.62,19.62,0,0,0-2.37.6,22.08,22.08,0,0,0-2.61,1,26,26,0,0,0-2.77,1.49,23.9,23.9,0,0,0-2.8,2,21,21,0,0,0-2.8,2.78,13.19,13.19,0,0,0-1.64,2.51,7.29,7.29,0,0,0-.68,2.24,6.36,6.36,0,0,0,.06,2,5.8,5.8,0,0,0,.61,1.68,8.12,8.12,0,0,0,.93,1.38,9.16,9.16,0,0,0,1.08,1.08,6.56,6.56,0,0,0,1.48.9,6,6,0,0,0,1.87.48,6.76,6.76,0,0,0,2.28-.17,12,12,0,0,0,2.74-1.08,18.57,18.57,0,0,0,3.18-2.22c.58-.48,1.06-.92,1.46-1.31s.75-.77,1.05-1.12.57-.72.81-1.06l.73-1.09-1.82-2.17-5.45,4.57-3.3-3.94,10.3-8.65,7.71,9.19a29,29,0,0,1-1.67,2.43q-1,1.26-2.1,2.52c-.73.84-1.5,1.66-2.3,2.44s-1.57,1.5-2.33,2.14a31,31,0,0,1-3.59,2.61,22.15,22.15,0,0,1-3.64,1.83,15.56,15.56,0,0,1-3.62.89,11,11,0,0,1-3.49-.14,10.84,10.84,0,0,1-3.28-1.33,12.82,12.82,0,0,1-3-2.68,12.12,12.12,0,0,1-2.08-3.43A10.71,10.71,0,0,1,375,155a11.18,11.18,0,0,1,.51-3.51,15.51,15.51,0,0,1,1.57-3.43,21.44,21.44,0,0,1,2.42-3.28,30.19,30.19,0,0,1,3.14-3"></path><path class="watermark-path" d="M428.63,119.31a12.26,12.26,0,0,1,2.59,4.82,10.44,10.44,0,0,1,0,5,14.53,14.53,0,0,1-2.34,5,25.29,25.29,0,0,1-4.56,4.86,26,26,0,0,1-5.59,3.67,14.84,14.84,0,0,1-5.38,1.43,10.61,10.61,0,0,1-4.95-.89,12.15,12.15,0,0,1-4.3-3.37,12,12,0,0,1-2.56-4.81,10.48,10.48,0,0,1,0-5,14.39,14.39,0,0,1,2.35-5,27.89,27.89,0,0,1,10.16-8.53,14.49,14.49,0,0,1,5.36-1.43,10.27,10.27,0,0,1,4.92.92,12.21,12.21,0,0,1,4.28,3.37m-4.91,4.12a8.17,8.17,0,0,0-2-1.72,5.58,5.58,0,0,0-2.65-.86,7.86,7.86,0,0,0-3.31.58,14.49,14.49,0,0,0-4,2.52,16.21,16.21,0,0,0-2.38,2.4,9.85,9.85,0,0,0-1.4,2.24,7,7,0,0,0-.56,2.1,6,6,0,0,0,.1,1.9,6.23,6.23,0,0,0,.62,1.69,8.49,8.49,0,0,0,1,1.44,9.18,9.18,0,0,0,1.26,1.23,6.67,6.67,0,0,0,1.57.92,6,6,0,0,0,1.84.41,6.86,6.86,0,0,0,2.16-.2,11.26,11.26,0,0,0,2.45-1,17.62,17.62,0,0,0,2.76-1.94,14.67,14.67,0,0,0,3.19-3.52,7.71,7.71,0,0,0,1.13-3.17,5.53,5.53,0,0,0-.36-2.74,8.55,8.55,0,0,0-1.37-2.3"></path></g></svg>